<?xml version="1.0" encoding="UTF-8" standalone="no"?>
<svg version="1.1" id="Layer_1" xmlns="http://www.w3.org/2000/svg" xmlns:xlink="http://www.w3.org/1999/xlink" x="0px" y="0px"
	 width="100%" viewBox="0 0 247 245" enable-background="new 0 0 247 245" xml:space="preserve">
<path fill="#FFFFFD" opacity="1.000000" stroke="none" 
	d="
M137.000000,246.000000 
	C91.333336,246.000000 46.166672,246.000000 1.000006,246.000000 
	C1.000004,164.333344 1.000004,82.666679 1.000002,1.000017 
	C83.333321,1.000011 165.666641,1.000011 247.999969,1.000006 
	C247.999985,82.666649 247.999985,164.333298 248.000000,245.999969 
	C211.166672,246.000000 174.333328,246.000000 137.000000,246.000000 
M184.510605,202.456741 
	C177.414078,207.894638 177.906265,215.694504 178.279663,223.307068 
	C178.388702,225.530136 179.719482,227.693268 180.490280,229.883896 
	C183.235229,228.299118 186.205887,226.986557 188.611099,224.992050 
	C189.539001,224.222595 189.037354,221.866776 189.444275,220.300522 
	C190.121231,217.694778 190.252151,214.360092 191.952225,212.723648 
	C196.096771,208.734207 196.422409,205.393311 192.250427,201.490402 
	C191.547623,200.832932 191.157684,199.841019 190.806763,198.210587 
	C190.856873,197.546295 190.674347,196.725815 190.997360,196.244751 
	C192.397095,194.159927 193.557755,191.126007 195.528992,190.398804 
	C198.465378,189.315536 202.596985,189.076035 204.219376,192.905960 
	C205.179123,195.171616 205.606491,198.494598 204.637741,200.583755 
	C202.095688,206.065781 198.587830,211.093262 195.619720,216.388672 
	C194.777908,217.890564 194.468246,219.690750 193.914520,221.354126 
	C194.384552,221.631912 194.854584,221.909698 195.324615,222.187485 
	C197.504761,220.260880 199.988266,218.583969 201.814133,216.365738 
	C211.204041,204.957962 213.807465,191.688889 211.422440,177.428345 
	C207.566803,154.374649 180.836868,136.027756 156.837845,142.530807 
	C141.685593,146.636612 130.993118,155.492157 124.456886,170.382065 
	C124.049637,171.597702 123.642380,172.813339 123.076813,174.674011 
	C123.054123,175.115784 123.031425,175.557571 122.557869,176.379776 
	C122.560349,176.933533 122.562828,177.487274 122.310188,178.876175 
	C122.393761,180.893799 122.477333,182.911407 122.292053,185.789871 
	C121.622856,200.731400 130.716705,219.343033 141.202545,221.718964 
	C139.870041,216.661667 140.113266,210.657791 137.274536,208.168457 
	C130.065155,201.846481 128.893448,193.150345 126.142265,184.999847 
	C131.020325,180.483490 134.965042,179.721542 138.260864,182.659073 
	C141.187851,185.267899 141.378998,190.477081 138.676926,193.999374 
	C135.131516,198.620972 135.151016,199.773026 140.010239,202.911255 
	C143.820312,205.371887 145.265030,208.582321 145.064438,212.975845 
	C144.890274,216.790604 144.511078,220.773376 145.409378,224.386841 
	C145.876511,226.265945 148.739609,228.445602 150.822250,228.822830 
	C154.183990,229.431732 153.949722,226.202927 153.947952,223.917084 
	C153.940842,214.764709 153.976547,205.608948 153.709641,196.462799 
	C153.652191,194.494156 152.674820,192.401398 151.650360,190.639603 
	C148.281464,184.846024 144.502319,179.285706 141.255676,173.427994 
	C138.676102,168.773834 141.865509,162.851501 147.068161,162.993546 
	C149.629349,163.063492 153.222565,164.612091 154.353836,166.617142 
	C155.462692,168.582458 154.792206,172.388947 153.553619,174.647552 
	C151.639938,178.137253 149.766571,181.424881 153.380646,184.352768 
	C158.784760,188.730865 158.841095,194.620880 158.921677,200.565094 
	C159.049606,210.002502 158.955811,219.442902 158.955811,228.882050 
	C159.464310,228.904785 159.972794,228.927521 160.481293,228.950256 
	C160.781464,228.219925 161.322525,227.496887 161.344910,226.758148 
	C161.594910,218.504120 161.764862,210.247665 162.674301,202.005920 
	C164.094803,202.671982 165.515320,203.338028 166.979172,204.940308 
	C166.978149,212.262665 166.800949,219.592468 167.109253,226.901779 
	C167.179733,228.572418 168.924973,230.172409 169.899384,231.804916 
	C170.917221,230.199875 172.610428,228.680222 172.826141,226.973801 
	C173.470535,221.875854 173.221664,216.659683 173.949249,211.579575 
	C174.364822,208.677994 175.413727,205.487488 177.193680,203.227386 
	C184.442444,194.023254 185.180054,187.201508 179.310623,177.177124 
	C176.827744,172.936615 179.102402,167.363647 183.911240,167.108185 
	C186.563019,166.967331 190.226212,167.857880 191.736313,169.685638 
	C193.046249,171.271088 192.451721,174.953568 191.815140,177.487183 
	C191.069870,180.453339 188.943604,183.069016 188.174149,186.033417 
	C186.813034,191.277267 186.024872,196.669830 184.510605,202.456741 
M117.074951,160.896057 
	C120.095245,159.426285 123.529640,158.460556 126.053703,156.386795 
	C132.204788,151.333115 137.883820,145.709457 143.842621,140.416275 
	C159.578491,126.438103 168.855789,109.866730 164.722931,88.037689 
	C160.066559,63.443485 137.037354,46.773563 111.022423,48.988350 
	C87.736069,50.970837 67.466766,73.065338 66.992119,96.892632 
	C66.718132,110.646683 72.573761,121.957703 80.862968,132.330826 
	C86.246780,139.068130 92.565392,145.358475 93.940086,154.327774 
	C94.645058,158.927429 97.060966,160.705734 101.181839,160.832764 
	C106.171577,160.986588 111.169128,160.886765 117.074951,160.896057 
M111.114388,173.463242 
	C114.724785,172.303452 118.986984,171.998199 119.991837,166.670242 
	C112.799400,166.670242 105.944939,166.549469 99.104324,166.802765 
	C98.098778,166.839981 97.158966,168.652878 96.188759,169.644211 
	C97.299873,170.400299 98.366913,171.234467 99.533134,171.892960 
	C101.028763,172.737442 102.604172,173.440659 104.145210,174.204742 
	C104.032898,174.677795 103.920593,175.150848 103.808281,175.623901 
	C102.474396,176.120743 100.959129,176.368896 99.851860,177.176483 
	C98.420807,178.220200 97.315651,179.710785 96.070168,181.008957 
	C97.588013,181.961624 99.036568,183.566238 100.637581,183.736404 
	C104.411285,184.137497 108.287750,184.130753 112.060532,183.719360 
	C113.675888,183.543228 115.136597,181.948807 116.667580,180.998825 
	C115.536964,179.560257 114.450653,178.083694 113.260666,176.696060 
	C112.421967,175.718063 111.442474,174.860809 111.114388,173.463242 
M105.615555,188.177597 
	C104.458054,188.187241 103.186386,187.891251 102.167450,188.271851 
	C100.206367,189.004364 98.388321,190.119812 96.510948,191.076447 
	C98.382019,192.376038 100.116875,194.443436 102.154373,194.804916 
	C105.683449,195.430984 109.429451,195.267883 113.022583,194.872894 
	C114.347290,194.727264 115.496971,192.989517 116.726479,191.977936 
	C115.479935,190.720856 114.434288,188.849197 112.936836,188.359711 
	C110.991905,187.723938 108.687614,188.187515 105.615555,188.177597 
M38.312901,90.904411 
	C37.403610,94.001511 39.287014,94.780006 41.743534,94.848625 
	C45.555393,94.955116 49.403824,95.208649 53.171001,94.797478 
	C54.860779,94.613037 56.391457,92.970917 57.994335,91.990265 
	C56.477501,90.752625 54.927700,88.430984 53.449875,88.475929 
	C48.568474,88.624413 43.713081,89.627831 38.312901,90.904411 
M185.655991,88.187752 
	C182.060730,89.120979 178.465469,90.054199 173.932053,91.230949 
	C179.288025,95.527145 189.637131,96.774315 193.480789,94.375679 
	C194.201645,93.925827 195.022507,92.805649 194.937469,92.098114 
	C194.822479,91.141258 194.050980,89.746735 193.253479,89.487892 
	C191.089508,88.785545 188.763367,88.582863 185.655991,88.187752 
M73.910240,50.413548 
	C73.872299,49.008316 74.416801,47.068737 73.699448,46.286819 
	C69.799583,42.035934 65.626991,38.030025 61.439121,34.054783 
	C60.872005,33.516460 59.690838,33.625038 58.793991,33.434078 
	C58.659248,34.488747 58.050030,35.823013 58.476608,36.546913 
	C59.891838,38.948582 61.370140,41.470783 63.397743,43.316875 
	C66.427216,46.075146 69.944107,48.298077 73.910240,50.413548 
M167.534393,36.991009 
	C164.135178,40.796097 160.735962,44.601189 157.201691,48.557472 
	C158.739563,49.513657 159.029495,49.853149 159.290527,49.832226 
	C162.959518,49.538094 174.304321,39.553326 174.815521,36.081253 
	C174.917572,35.388145 174.608887,34.253910 174.106323,33.943367 
	C173.387314,33.499084 172.097214,33.230671 171.440659,33.593079 
	C170.164825,34.297337 169.160004,35.492588 167.534393,36.991009 
M119.827927,32.937584 
	C120.192604,27.423599 120.669922,21.912075 120.790520,16.392761 
	C120.807037,15.636554 119.047897,14.841550 118.110870,14.064501 
	C117.395996,14.976870 116.098694,15.868118 116.064713,16.805180 
	C115.896484,21.444523 115.899460,26.108131 116.245552,30.732994 
	C116.315681,31.670048 118.126045,32.476875 119.827927,32.937584 
z"/>
<path fill="#D3B977" opacity="1.000000" stroke="none" 
	d="
M116.619125,160.896393 
	C111.169128,160.886765 106.171577,160.986588 101.181839,160.832764 
	C97.060966,160.705734 94.645058,158.927429 93.940086,154.327774 
	C92.565392,145.358475 86.246780,139.068130 80.862968,132.330826 
	C72.573761,121.957703 66.718132,110.646683 66.992119,96.892632 
	C67.466766,73.065338 87.736069,50.970837 111.022423,48.988350 
	C137.037354,46.773563 160.066559,63.443485 164.722931,88.037689 
	C168.855789,109.866730 159.578491,126.438103 143.842621,140.416275 
	C137.883820,145.709457 132.204788,151.333115 126.053703,156.386795 
	C123.529640,158.460556 120.095245,159.426285 116.619125,160.896393 
M89.227631,110.761070 
	C88.397636,112.393379 87.293831,113.949570 86.813072,115.678970 
	C86.311501,117.483208 86.410255,119.454323 86.246552,121.352493 
	C88.401878,120.684883 91.278389,120.653992 92.553749,119.209473 
	C94.808594,116.655510 96.094170,113.244019 97.775917,110.186211 
	C101.114014,104.116768 105.854599,104.321976 112.669983,105.281265 
	C117.847534,106.010025 115.335968,110.850227 115.891838,113.962654 
	C116.122986,115.256874 115.582901,116.789490 116.078659,117.910782 
	C116.724915,119.372467 118.026665,121.622398 119.090393,121.647240 
	C126.219810,121.813728 133.369476,121.614433 140.489273,121.164864 
	C141.588821,121.095436 142.568787,119.131783 143.604050,118.044144 
	C142.436966,117.089104 141.341553,115.438126 140.089417,115.309204 
	C136.296463,114.918663 132.440262,115.019096 128.613602,115.118042 
	C125.484581,115.198944 123.014839,114.951164 122.879013,110.841888 
	C122.749725,106.930214 124.761978,105.360100 128.215225,105.106171 
	C130.867462,104.911140 133.656555,105.436951 136.159210,104.781265 
	C137.626984,104.396706 138.653076,102.326248 139.877838,101.014137 
	C138.607864,99.999298 137.477371,98.485420 136.036331,98.082672 
	C133.678055,97.423599 131.121719,97.348503 128.641754,97.277802 
	C124.568703,97.161682 123.124954,94.823074 123.050682,91.153809 
	C123.023720,89.821861 123.057571,88.487862 123.000427,87.157509 
	C122.841118,83.448952 124.290718,81.578545 128.301117,81.858681 
	C131.781326,82.101791 135.344879,82.258316 138.767853,81.751839 
	C140.506378,81.494606 142.016159,79.691338 143.629349,78.586990 
	C141.928802,77.405067 140.275742,75.292473 138.519470,75.202843 
	C131.044357,74.821411 123.516563,75.391129 116.051437,74.922180 
	C110.456863,74.570732 107.558113,77.084702 105.165947,81.682182 
	C100.178391,91.267738 94.832336,100.666756 89.227631,110.761070 
z"/>
<path fill="#D3BA7C" opacity="1.000000" stroke="none" 
	d="
M122.560898,184.929031 
	C122.477333,182.911407 122.393761,180.893799 122.669266,178.383026 
	C123.021805,177.259689 123.015266,176.629517 123.008728,175.999344 
	C123.031425,175.557571 123.054123,175.115784 123.459183,174.285309 
	C124.220146,172.593811 124.598747,171.291016 124.977341,169.988205 
	C130.993118,155.492157 141.685593,146.636612 156.837845,142.530807 
	C180.836868,136.027756 207.566803,154.374649 211.422440,177.428345 
	C213.807465,191.688889 211.204041,204.957962 201.814133,216.365738 
	C199.988266,218.583969 197.504761,220.260880 195.324615,222.187485 
	C194.854584,221.909698 194.384552,221.631912 193.914520,221.354126 
	C194.468246,219.690750 194.777908,217.890564 195.619720,216.388672 
	C198.587830,211.093262 202.095688,206.065781 204.637741,200.583755 
	C205.606491,198.494598 205.179123,195.171616 204.219376,192.905960 
	C202.596985,189.076035 198.465378,189.315536 195.528992,190.398804 
	C193.557755,191.126007 192.397095,194.159927 190.997360,196.244751 
	C190.674347,196.725815 190.856873,197.546295 190.380753,198.614746 
	C188.302139,200.012665 186.649536,201.006424 184.996918,202.000183 
	C186.024872,196.669830 186.813034,191.277267 188.174149,186.033417 
	C188.943604,183.069016 191.069870,180.453339 191.815140,177.487183 
	C192.451721,174.953568 193.046249,171.271088 191.736313,169.685638 
	C190.226212,167.857880 186.563019,166.967331 183.911240,167.108185 
	C179.102402,167.363647 176.827744,172.936615 179.310623,177.177124 
	C185.180054,187.201508 184.442444,194.023254 177.193680,203.227386 
	C175.413727,205.487488 174.364822,208.677994 173.949249,211.579575 
	C173.221664,216.659683 173.470535,221.875854 172.826141,226.973801 
	C172.610428,228.680222 170.917221,230.199875 169.899384,231.804916 
	C168.924973,230.172409 167.179733,228.572418 167.109253,226.901779 
	C166.800949,219.592468 166.978149,212.262665 167.156876,204.190598 
	C171.156204,199.719955 172.529160,195.280167 172.118546,189.919388 
	C171.713608,184.632736 171.866486,179.284805 172.070801,173.975159 
	C172.285446,168.396393 172.503708,162.966461 176.035492,157.894119 
	C177.514771,155.769577 177.097336,151.243820 175.818558,148.664185 
	C174.983490,146.979614 171.021805,146.062485 168.508865,146.152191 
	C162.987595,146.349319 160.909393,152.932587 164.304062,158.460449 
	C165.236130,159.978241 166.792572,161.500031 166.879822,163.085083 
	C167.371002,172.008179 168.132385,180.997849 167.476364,189.866760 
	C167.169022,194.021835 163.889130,197.957031 161.956390,201.991867 
	C161.764862,210.247665 161.594910,218.504120 161.344910,226.758148 
	C161.322525,227.496887 160.781464,228.219925 160.481293,228.950256 
	C159.972794,228.927521 159.464310,228.904785 158.955811,228.882050 
	C158.955811,219.442902 159.049606,210.002502 158.921677,200.565094 
	C158.841095,194.620880 158.784760,188.730865 153.380646,184.352768 
	C149.766571,181.424881 151.639938,178.137253 153.553619,174.647552 
	C154.792206,172.388947 155.462692,168.582458 154.353836,166.617142 
	C153.222565,164.612091 149.629349,163.063492 147.068161,162.993546 
	C141.865509,162.851501 138.676102,168.773834 141.255676,173.427994 
	C144.502319,179.285706 148.281464,184.846024 151.650360,190.639603 
	C152.674820,192.401398 153.652191,194.494156 153.709641,196.462799 
	C153.976547,205.608948 153.940842,214.764709 153.947952,223.917084 
	C153.949722,226.202927 154.183990,229.431732 150.822250,228.822830 
	C148.739609,228.445602 145.876511,226.265945 145.409378,224.386841 
	C144.511078,220.773376 144.890274,216.790604 145.064438,212.975845 
	C145.265030,208.582321 143.820312,205.371887 140.010239,202.911255 
	C135.151016,199.773026 135.131516,198.620972 138.676926,193.999374 
	C141.378998,190.477081 141.187851,185.267899 138.260864,182.659073 
	C134.965042,179.721542 131.020325,180.483490 125.462814,185.064087 
	C124.042542,185.061905 123.301720,184.995468 122.560898,184.929031 
z"/>
<path fill="#FAF8EE" opacity="1.000000" stroke="none" 
	d="
M162.315338,201.998901 
	C163.889130,197.957031 167.169022,194.021835 167.476364,189.866760 
	C168.132385,180.997849 167.371002,172.008179 166.879822,163.085083 
	C166.792572,161.500031 165.236130,159.978241 164.304062,158.460449 
	C160.909393,152.932587 162.987595,146.349319 168.508865,146.152191 
	C171.021805,146.062485 174.983490,146.979614 175.818558,148.664185 
	C177.097336,151.243820 177.514771,155.769577 176.035492,157.894119 
	C172.503708,162.966461 172.285446,168.396393 172.070801,173.975159 
	C171.866486,179.284805 171.713608,184.632736 172.118546,189.919388 
	C172.529160,195.280167 171.156204,199.719955 167.135193,203.722488 
	C165.515320,203.338028 164.094803,202.671982 162.315338,201.998901 
z"/>
<path fill="#D4BA7B" opacity="1.000000" stroke="none" 
	d="
M184.753754,202.228455 
	C186.649536,201.006424 188.302139,200.012665 190.288956,199.011276 
	C191.157684,199.841019 191.547623,200.832932 192.250427,201.490402 
	C196.422409,205.393311 196.096771,208.734207 191.952225,212.723648 
	C190.252151,214.360092 190.121231,217.694778 189.444275,220.300522 
	C189.037354,221.866776 189.539001,224.222595 188.611099,224.992050 
	C186.205887,226.986557 183.235229,228.299118 180.490265,229.883881 
	C179.719482,227.693268 178.388702,225.530136 178.279663,223.307068 
	C177.906265,215.694504 177.414078,207.894638 184.753754,202.228455 
z"/>
<path fill="#D5BF8B" opacity="1.000000" stroke="none" 
	d="
M110.820114,173.706451 
	C111.442474,174.860809 112.421967,175.718063 113.260666,176.696060 
	C114.450653,178.083694 115.536964,179.560257 116.667572,180.998825 
	C115.136597,181.948807 113.675888,183.543228 112.060532,183.719360 
	C108.287750,184.130753 104.411285,184.137497 100.637581,183.736404 
	C99.036568,183.566238 97.588013,181.961624 96.070175,181.008957 
	C97.315651,179.710785 98.420807,178.220200 99.851860,177.176483 
	C100.959129,176.368896 102.474396,176.120743 103.808281,175.623901 
	C103.920593,175.150848 104.032898,174.677795 104.145210,174.204742 
	C102.604172,173.440659 101.028763,172.737442 99.533134,171.892960 
	C98.366913,171.234467 97.299873,170.400299 96.188751,169.644211 
	C97.158966,168.652878 98.098778,166.839981 99.104324,166.802765 
	C105.944939,166.549469 112.799400,166.670242 119.991837,166.670242 
	C118.986984,171.998199 114.724785,172.303452 110.820114,173.706451 
z"/>
<path fill="#D2BF90" opacity="1.000000" stroke="none" 
	d="
M122.426476,185.359451 
	C123.301720,184.995468 124.042542,185.061905 125.159264,185.205139 
	C128.893448,193.150345 130.065155,201.846481 137.274536,208.168457 
	C140.113266,210.657791 139.870041,216.661667 141.202545,221.718964 
	C130.716705,219.343033 121.622856,200.731400 122.426476,185.359451 
z"/>
<path fill="#D5C08C" opacity="1.000000" stroke="none" 
	d="
M106.076775,188.177765 
	C108.687614,188.187515 110.991905,187.723938 112.936836,188.359711 
	C114.434288,188.849197 115.479935,190.720856 116.726479,191.977936 
	C115.496971,192.989517 114.347290,194.727264 113.022583,194.872894 
	C109.429451,195.267883 105.683449,195.430984 102.154373,194.804916 
	C100.116875,194.443436 98.382019,192.376038 96.510948,191.076447 
	C98.388321,190.119812 100.206367,189.004364 102.167450,188.271851 
	C103.186386,187.891251 104.458054,188.187241 106.076775,188.177765 
z"/>
<path fill="#D3BF8E" opacity="1.000000" stroke="none" 
	d="
M38.580299,90.603745 
	C43.713081,89.627831 48.568474,88.624413 53.449875,88.475929 
	C54.927700,88.430984 56.477501,90.752625 57.994331,91.990265 
	C56.391457,92.970917 54.860779,94.613037 53.171001,94.797478 
	C49.403824,95.208649 45.555393,94.955116 41.743534,94.848625 
	C39.287014,94.780006 37.403610,94.001511 38.580299,90.603745 
z"/>
<path fill="#D5BF8B" opacity="1.000000" stroke="none" 
	d="
M186.078766,88.184914 
	C188.763367,88.582863 191.089508,88.785545 193.253479,89.487892 
	C194.050980,89.746735 194.822479,91.141258 194.937469,92.098114 
	C195.022507,92.805649 194.201645,93.925827 193.480789,94.375679 
	C189.637131,96.774315 179.288025,95.527145 173.932053,91.230949 
	C178.465469,90.054199 182.060730,89.120979 186.078766,88.184914 
z"/>
<path fill="#D2BF90" opacity="1.000000" stroke="none" 
	d="
M73.581940,50.581146 
	C69.944107,48.298077 66.427216,46.075146 63.397743,43.316875 
	C61.370140,41.470783 59.891838,38.948582 58.476608,36.546913 
	C58.050030,35.823013 58.659248,34.488747 58.793991,33.434078 
	C59.690838,33.625038 60.872005,33.516460 61.439121,34.054783 
	C65.626991,38.030025 69.799583,42.035934 73.699448,46.286819 
	C74.416801,47.068737 73.872299,49.008316 73.581940,50.581146 
z"/>
<path fill="#D2C091" opacity="1.000000" stroke="none" 
	d="
M167.788651,36.737724 
	C169.160004,35.492588 170.164825,34.297337 171.440659,33.593079 
	C172.097214,33.230671 173.387314,33.499084 174.106323,33.943367 
	C174.608887,34.253910 174.917572,35.388145 174.815521,36.081253 
	C174.304321,39.553326 162.959518,49.538094 159.290527,49.832226 
	C159.029495,49.853149 158.739563,49.513657 157.201691,48.557472 
	C160.735962,44.601189 164.135178,40.796097 167.788651,36.737724 
z"/>
<path fill="#D0BD8C" opacity="1.000000" stroke="none" 
	d="
M119.481033,33.140663 
	C118.126045,32.476875 116.315681,31.670048 116.245552,30.732994 
	C115.899460,26.108131 115.896484,21.444523 116.064713,16.805180 
	C116.098694,15.868118 117.395996,14.976870 118.110870,14.064505 
	C119.047897,14.841550 120.807037,15.636554 120.790520,16.392761 
	C120.669922,21.912075 120.192604,27.423599 119.481033,33.140663 
z"/>
<path fill="#D2BF90" opacity="1.000000" stroke="none" 
	d="
M124.717117,170.185135 
	C124.598747,171.291016 124.220146,172.593811 123.538338,173.962799 
	C123.642380,172.813339 124.049637,171.597702 124.717117,170.185135 
z"/>
<path fill="#D2BF90" opacity="1.000000" stroke="none" 
	d="
M122.783295,176.189560 
	C123.015266,176.629517 123.021805,177.259689 122.796822,177.965454 
	C122.562828,177.487274 122.560349,176.933533 122.783295,176.189560 
z"/>
<path fill="#FBF8EE" opacity="1.000000" stroke="none" 
	d="
M89.430611,110.451752 
	C94.832336,100.666756 100.178391,91.267738 105.165947,81.682182 
	C107.558113,77.084702 110.456863,74.570732 116.051437,74.922180 
	C123.516563,75.391129 131.044357,74.821411 138.519470,75.202843 
	C140.275742,75.292473 141.928802,77.405067 143.629349,78.586990 
	C142.016159,79.691338 140.506378,81.494606 138.767853,81.751839 
	C135.344879,82.258316 131.781326,82.101791 128.301117,81.858681 
	C124.290718,81.578545 122.841118,83.448952 123.000427,87.157509 
	C123.057571,88.487862 123.023720,89.821861 123.050682,91.153809 
	C123.124954,94.823074 124.568703,97.161682 128.641754,97.277802 
	C131.121719,97.348503 133.678055,97.423599 136.036331,98.082672 
	C137.477371,98.485420 138.607864,99.999298 139.877838,101.014137 
	C138.653076,102.326248 137.626984,104.396706 136.159210,104.781265 
	C133.656555,105.436951 130.867462,104.911140 128.215225,105.106171 
	C124.761978,105.360100 122.749725,106.930214 122.879013,110.841888 
	C123.014839,114.951164 125.484581,115.198944 128.613602,115.118042 
	C132.440262,115.019096 136.296463,114.918663 140.089417,115.309204 
	C141.341553,115.438126 142.436966,117.089104 143.604050,118.044144 
	C142.568787,119.131783 141.588821,121.095436 140.489273,121.164864 
	C133.369476,121.614433 126.219810,121.813728 119.090393,121.647240 
	C118.026665,121.622398 116.724915,119.372467 116.078659,117.910782 
	C115.582901,116.789490 116.122986,115.256874 115.891838,113.962654 
	C115.335968,110.850227 117.847534,106.010025 112.669983,105.281265 
	C105.854599,104.321976 101.114014,104.116768 97.775917,110.186211 
	C96.094170,113.244019 94.808594,116.655510 92.553749,119.209473 
	C91.278389,120.653992 88.401878,120.684883 86.246552,121.352493 
	C86.410255,119.454323 86.311501,117.483208 86.813072,115.678970 
	C87.293831,113.949570 88.397636,112.393379 89.430611,110.451752 
M108.893448,89.378639 
	C107.607346,91.975639 106.321243,94.572632 105.035141,97.169624 
	C105.363533,97.686096 105.691925,98.202560 106.020317,98.719032 
	C109.104179,97.791321 114.179459,97.612221 114.866867,95.783630 
	C116.407028,91.686592 115.764542,86.769051 116.010857,82.185623 
	C115.255112,81.985382 114.499359,81.785133 113.743614,81.584885 
	C112.232361,83.957085 110.721115,86.329285 108.893448,89.378639 
z"/>
<path fill="#D5BF8C" opacity="1.000000" stroke="none" 
	d="
M109.051659,89.040062 
	C110.721115,86.329285 112.232361,83.957085 113.743614,81.584885 
	C114.499359,81.785133 115.255112,81.985382 116.010857,82.185623 
	C115.764542,86.769051 116.407028,91.686592 114.866867,95.783630 
	C114.179459,97.612221 109.104179,97.791321 106.020317,98.719032 
	C105.691925,98.202560 105.363533,97.686096 105.035141,97.169624 
	C106.321243,94.572632 107.607346,91.975639 109.051659,89.040062 
z"/>
</svg>